<svg width="32" height="32" viewBox="0 0 32 32" fill="none" xmlns="http://www.w3.org/2000/svg">
<g clipPath="url(#clip0_2194_2098)">
<path d="M30.5549 30.5435C29.7515 31.3526 28.4435 31.3544 27.6379 30.5475L16.0103 18.9016L4.38213 30.5481C3.57601 31.3555 2.26785 31.356 1.46109 30.5492C0.654339 29.7425 0.654854 28.4343 1.46224 27.6282L13.1087 16L1.46224 4.37188C0.654854 3.56576 0.654339 2.25759 1.46109 1.45084C2.26785 0.644085 3.57601 0.644599 4.38213 1.45199L16.0103 13.0984L27.6476 1.46113C28.4488 0.65987 29.7479 0.659872 30.5492 1.46113C31.3505 2.26239 31.3505 3.56148 30.5492 4.36274L18.9119 16L30.5498 27.6379C31.3515 28.4397 31.3538 29.7389 30.5549 30.5435Z" fill="#3E3937"/>
</g>
<defs>
<clipPath id="clip0_2194_2098">
<rect width="32" height="32" rx="16" fill="white"/>
</clipPath>
</defs>
</svg>
