<svg width="180" height="156" viewBox="0 0 180 156" fill="none" xmlns="http://www.w3.org/2000/svg">
<path d="M0 54.3872C0 37.005 4.34554 23.6289 13.0366 14.2588C21.8635 4.75294 34.289 0 50.3132 0C66.3374 0 78.763 4.75294 87.5899 14.2588C96.4167 23.6289 100.83 36.8013 100.83 53.7761V99.8117C100.83 118.144 96.6204 132.064 88.2009 141.57C79.9172 151.076 67.6954 155.828 51.5354 155.828C34.968 155.828 22.203 151.076 13.2403 141.57C4.41344 131.928 0 118.009 0 99.8117V54.3872ZM18.9438 97.9784C18.9438 125.002 29.604 138.514 50.9243 138.514C61.5166 138.514 69.325 135.255 74.3495 128.737C79.3741 122.218 81.8863 112.034 81.8863 98.1821V56.6278C81.8863 30.4188 71.4299 17.3143 50.5169 17.3143C29.4682 17.3143 18.9438 30.4188 18.9438 56.6278V97.9784Z" fill="#E3D9D4"/>
<path d="M161.056 20.166H137.631V2.64807H180V153.18H161.056V20.166Z" fill="#E3D9D4"/>
</svg>
