<svg width="216" height="159" viewBox="0 0 216 159" fill="none" xmlns="http://www.w3.org/2000/svg">
<path d="M0 55.4941C0 37.7582 4.43399 24.1098 13.302 14.549C22.3085 4.84967 34.9869 0 51.3373 0C67.6876 0 80.366 4.84967 89.3726 14.549C98.3791 24.1098 102.882 37.5503 102.882 54.8706V101.843C102.882 120.549 98.5869 134.752 89.9961 144.451C81.5438 154.15 69.0732 159 52.5843 159C35.6797 159 22.6549 154.15 13.5098 144.451C4.50327 134.613 0 120.41 0 101.843V55.4941ZM19.3294 99.9725C19.3294 127.546 30.2065 141.333 51.9608 141.333C62.7686 141.333 70.7359 138.008 75.8627 131.357C80.9895 124.706 83.5529 114.314 83.5529 100.18V57.7804C83.5529 31.0379 72.8837 17.6667 51.5451 17.6667C30.068 17.6667 19.3294 31.0379 19.3294 57.7804V99.9725Z" fill="#E3D9D4"/>
<path d="M116.322 138.839L170.362 87.0863C175.627 82.098 179.853 77.8026 183.04 74.2C186.365 70.5974 188.929 67.3412 190.73 64.4314C192.67 61.383 193.986 58.5425 194.679 55.9098C195.372 53.2771 195.718 50.3673 195.718 47.1804C195.718 42.885 194.956 38.9359 193.432 35.3333C192.047 31.7307 190.037 28.6131 187.405 25.9804C184.772 23.3477 181.585 21.3386 177.844 19.9529C174.241 18.4288 170.292 17.6667 165.997 17.6667C156.575 17.6667 149.162 20.8536 143.758 27.2274C138.492 33.4627 135.86 42.1922 135.86 53.4157H116.738C116.738 45.2405 117.847 37.8967 120.064 31.3843C122.419 24.7333 125.745 19.1216 130.04 14.549C134.335 9.83791 139.531 6.2353 145.628 3.74118C151.725 1.24706 158.584 0 166.205 0C173.271 0 179.784 1.17778 185.742 3.53334C191.7 5.88889 196.827 9.21438 201.122 13.5098C205.556 17.8052 208.951 22.8627 211.307 28.6824C213.801 34.502 215.048 40.8758 215.048 47.8039C215.048 52.0993 214.563 56.1176 213.593 59.8588C212.623 63.6 211.03 67.4105 208.813 71.2902C206.596 75.1699 203.616 79.1882 199.875 83.3451C196.273 87.502 191.769 92.2131 186.365 97.4784L143.134 138.424H214.424V156.298H116.322V138.839Z" fill="#E3D9D4"/>
</svg>
