<svg width="214" height="158" viewBox="0 0 214 158" fill="none" xmlns="http://www.w3.org/2000/svg">
<path d="M0 55.1451C0 37.5207 4.4061 23.9582 13.2183 14.4575C22.1682 4.81917 34.7669 0 51.0144 0C67.2619 0 79.8606 4.81917 88.8105 14.4575C97.7604 23.9582 102.235 37.3142 102.235 54.5255V101.203C102.235 119.791 97.9669 133.904 89.4301 143.542C81.0309 153.181 68.6388 158 52.2536 158C35.4553 158 22.5124 153.181 13.4248 143.542C4.47495 133.766 0 119.653 0 101.203V55.1451ZM19.2078 99.3438C19.2078 126.744 30.0166 140.444 51.634 140.444C62.3739 140.444 70.2911 137.14 75.3856 130.531C80.4802 123.922 83.0275 113.595 83.0275 99.5503V57.417C83.0275 30.8427 72.4253 17.5555 51.2209 17.5555C29.8789 17.5555 19.2078 30.8427 19.2078 57.417V99.3438Z" fill="#E3D9D4"/>
<path d="M133.559 108.018C134.386 118.345 137.484 126.331 142.854 131.976C148.361 137.622 155.521 140.444 164.333 140.444C168.602 140.444 172.526 139.687 176.106 138.173C179.823 136.52 182.99 134.317 185.606 131.563C188.36 128.672 190.494 125.298 192.009 121.443C193.524 117.588 194.281 113.457 194.281 109.051C194.281 98.9996 191.114 91.22 184.78 85.7124C178.447 80.2048 169.428 77.451 157.724 77.451H153.8V59.4824H163.301C169.497 59.4824 174.453 57.5547 178.171 53.6994C182.026 49.7063 183.954 44.6118 183.954 38.4157C183.954 32.2196 182.095 27.1939 178.378 23.3386C174.66 19.4832 169.91 17.5555 164.127 17.5555C151.459 17.5555 144.781 25.0597 144.093 40.068H124.678C125.367 27.6758 129.153 17.8998 136.038 10.7399C143.06 3.57996 152.354 0 163.92 0C169.703 0 175.004 0.963834 179.823 2.8915C184.643 4.81917 188.773 7.57299 192.216 11.1529C195.796 14.5952 198.549 18.7259 200.477 23.5451C202.405 28.3643 203.369 33.6654 203.369 39.4484C203.369 45.6444 202.129 51.0144 199.651 55.5582C197.31 60.102 193.592 64.1638 188.498 67.7438C205.296 75.8675 213.695 89.3612 213.695 108.225C213.695 115.247 212.456 121.787 209.978 127.846C207.499 133.904 204.057 139.205 199.651 143.749C195.245 148.155 190.013 151.666 183.954 154.282C178.033 156.761 171.631 158 164.746 158C157.449 158 150.771 156.83 144.712 154.489C138.654 152.01 133.422 148.637 129.016 144.369C124.609 139.963 121.098 134.73 118.482 128.672C116.004 122.476 114.558 115.591 114.145 108.018H133.559Z" fill="#E3D9D4"/>
</svg>
