<svg width="32" height="32" viewBox="0 0 32 32" fill="none" xmlns="http://www.w3.org/2000/svg">
<rect width="32" height="32" fill="#F6F4F0"/>
<path d="M7.46048 29.8424L6.10352 27.2544H6.5405L7.81122 29.6908H7.59273L8.9037 27.2544H9.29469L10.5884 29.6908H10.3814L11.6636 27.2544H12.0719L10.7149 29.8424H10.2664L9.03019 27.5317H9.14519L7.90322 29.8424H7.46048Z" fill="#2F2D27"/>
<path d="M19.6332 29.8424V27.2544H20.0587V29.6058H22.3126V29.8424H19.6332Z" fill="#2F2D27"/>
<path d="M23.0191 29.8424V27.2544H23.4446V29.6058H25.6985V29.8424H23.0191Z" fill="#2F2D27"/>
<path d="M13.6793 28.3931H17.5499V28.6223H13.6793V28.3931ZM13.785 29.5682L18.1737 29.5682V29.801L13.4743 29.801V27.2544L18.1737 27.2544V27.4872L13.785 27.4872V29.5682Z" fill="#2F2D27"/>
<path d="M6.14795 2.0791V24.7649L15.6552 13.3251L25.6408 25.1527" stroke="#2F2D27" stroke-width="0.387792"/>
<path d="M9.35788 17.1875L22.0211 2.07887" stroke="#2F2D27" stroke-width="0.387792"/>
</svg>
