<svg width="32" height="32" viewBox="0 0 32 32" fill="none" xmlns="http://www.w3.org/2000/svg">
<rect width="32" height="32" fill="#3E3937"/>
<path d="M17.8722 16.2965V4.37552C19.2745 4.58288 20.6296 5.05258 21.8574 5.76148C23.5163 6.71921 24.9158 8.0936 25.9044 9.73419H26.8679C26.8679 9.73419 26.7686 9.42556 26.6721 9.26738C25.6054 7.49755 24.095 6.0161 22.3059 4.98314C20.4599 3.91738 18.3515 3.35413 16.2084 3.35413C14.5601 3.35413 12.961 3.67723 11.4555 4.31379C10.002 4.92913 8.69608 5.80874 7.57438 6.93043C6.45365 8.05117 5.57307 9.35708 4.95773 10.8115C4.3231 12.3161 4 13.9152 4 15.5635C4 17.2118 4.3231 18.811 4.95966 20.3165C5.575 21.771 6.45461 23.0759 7.57631 24.1976C8.69704 25.3183 10.003 26.1989 11.4574 26.8142C12.963 27.4508 14.5621 27.7739 16.2104 27.7739C19.3729 27.7739 22.3493 26.6763 24.5917 24.6837C25.7067 23.6932 26.6008 22.5213 27.2508 21.199C27.924 19.8285 28.3127 18.3393 28.4063 16.773L28.4343 16.2965H17.8722ZM8.2119 23.561C7.17315 22.5223 6.3572 21.3128 5.78815 19.9654C5.19885 18.5718 4.89986 17.0903 4.89986 15.5626C4.89986 14.0348 5.19885 12.5543 5.78815 11.1597C6.35816 9.81328 7.17315 8.60285 8.2119 7.5641C9.25065 6.52535 10.4601 5.7094 11.8075 5.14035C12.9138 4.67258 14.075 4.38805 15.27 4.28968V13.8593H10.9809V14.7582H15.27V26.8345C14.075 26.7371 12.9138 26.4526 11.8075 25.9838C10.4611 25.4138 9.25065 24.5988 8.2119 23.5601V23.561ZM16.1689 26.874V4.25303C16.1824 4.25303 16.1959 4.25303 16.2094 4.25303C16.465 4.25303 16.7196 4.26171 16.9733 4.27907V26.8519C16.7206 26.8673 16.466 26.875 16.2094 26.875C16.1959 26.875 16.1824 26.875 16.1689 26.875V26.874ZM26.4436 20.8017C25.8456 22.0188 25.0209 23.0981 23.9938 24.0115C22.3127 25.5054 20.1821 26.4564 17.8712 26.7651V17.1954H27.4698C27.3405 18.4676 26.9952 19.679 26.4436 20.8017Z" fill="#F0EBE8"/>
</svg>
