<svg width="320" height="320" viewBox="0 0 320 320" fill="none" xmlns="http://www.w3.org/2000/svg">
<g clip-path="url(#clip0_2194_1859)">
<path d="M181.682 181.504H307.394C305.701 198.104 301.179 213.911 293.953 228.56C286.122 244.443 275.322 258.525 261.869 270.444C239.852 289.938 211.948 302.347 181.682 306.374L169.91 307.507C166.6 307.709 163.265 307.809 159.905 307.809C159.728 307.809 159.552 307.809 159.375 307.809L147.602 307.306C131.951 306.035 116.743 302.322 102.254 296.206C84.6201 288.768 68.7672 278.133 55.1628 264.579C41.5584 251.025 30.872 235.243 23.4193 217.661C15.7013 199.476 11.7854 180.145 11.7854 160.21C11.7854 140.275 15.7013 120.957 23.4193 102.758C30.8846 85.1893 41.5584 69.3949 55.1628 55.8406C68.7672 42.2863 84.6074 31.6392 102.254 24.214C116.743 18.1101 131.951 14.3975 147.602 13.1138L159.375 12.6104C159.552 12.6104 159.728 12.6104 159.905 12.6104C163.253 12.6104 166.587 12.7237 169.91 12.9502L181.682 14.2087C200.049 16.9145 217.797 23.0435 233.877 32.2937C255.603 44.7908 273.932 62.7247 286.88 84.1322H299.499C299.499 84.1322 298.198 80.1049 296.934 78.0409C282.964 54.9471 263.182 35.6162 239.751 22.1374C215.599 8.24332 187.973 0.893555 159.905 0.893555C138.318 0.893555 117.374 5.1096 97.656 13.4158C78.62 21.4452 61.5166 32.9229 46.8259 47.5595C32.1478 62.1836 20.615 79.2239 12.556 98.2024C4.23163 117.835 0 138.702 0 160.21C0 181.718 4.23164 202.584 12.5686 222.23C20.6276 241.208 32.1478 258.236 46.8385 272.873C61.5166 287.497 78.62 298.987 97.6687 307.016C117.387 315.323 138.33 319.539 159.918 319.539C201.337 319.539 240.319 305.217 269.688 279.216C284.29 266.291 296 251 304.514 233.745C313.33 215.862 318.421 196.43 319.646 175.992L320.013 169.775H181.682" fill="#D9CDC4" fill-opacity="0.48"/>
</g>
<defs>
<clipPath id="clip0_2194_1859">
<rect width="320" height="318.632" fill="white" transform="translate(0 0.892578)"/>
</clipPath>
</defs>
</svg>
