<svg width="298" height="141" viewBox="0 0 298 141" fill="none" xmlns="http://www.w3.org/2000/svg">
<path d="M0 99.9059L64.6664 2.90625H82.0204V99.3579H94.9902V114.702H82.0204V137.902H65.0318V114.702H0V99.9059ZM65.0318 99.3579V29.0286L18.6327 99.3579H65.0318Z" fill="#3E3937"/>
<path d="M105.341 49.3053C105.341 33.7172 109.238 21.7216 117.032 13.3186C124.948 4.79388 136.091 0.531494 150.462 0.531494C164.832 0.531494 175.975 4.79388 183.891 13.3186C191.807 21.7216 195.765 33.5345 195.765 48.7573V90.0415C195.765 106.482 191.989 118.965 184.439 127.49C177.01 136.014 166.05 140.277 151.558 140.277C136.7 140.277 125.253 136.014 117.215 127.49C109.299 118.843 105.341 106.36 105.341 90.0415V49.3053ZM122.33 88.3975C122.33 112.632 131.89 124.749 151.01 124.749C160.509 124.749 167.511 121.827 172.017 115.981C176.523 110.136 178.776 101.002 178.776 88.5801V51.3147C178.776 27.8107 169.399 16.0587 150.644 16.0587C131.768 16.0587 122.33 27.8107 122.33 51.3147V88.3975Z" fill="#3E3937"/>
<path d="M203.01 99.9059L267.677 2.90625H285.031V99.3579H298V114.702H285.031V137.902H268.042V114.702H203.01V99.9059ZM268.042 99.3579V29.0286L221.643 99.3579H268.042Z" fill="#3E3937"/>
</svg>
